<?xml version="1.0" standalone="yes"?>
<svg width="86" height="85">
<path style="fill:#000000; stroke:none;" d="M0 0L0 11L1 11L4 0L0 0z"/>
<path style="fill:#32325f; stroke:none;" d="M9 85L13.8148 71L14 20L18 39L20 39C22.1601 31.6921 23.5859 17.4968 14 16C13.9172 11.9892 10.4751 -8.54947 3.02392 2.3179C-0.421409 7.34286 0 16.2081 0 22C0 36.7973 -1.30718 52.2779 0.170525 67C0.750728 72.7805 2.96934 83.0194 9 85z"/>
<path style="fill:#000000; stroke:none;" d="M11 0L14 16C23.4356 18.6801 21.8477 31.2394 20 39L18 39C16.658 33.3634 19.1901 23.3648 14 20L13.8148 70L9 85L24 85L24 84C18.4899 79.9057 14.1302 71.753 24 71L24 33C24 28.2484 22.7631 21.3526 25.0278 17.0193C27.7232 11.8617 32.954 12.0023 38 12C49.1832 11.995 77.512 7.0102 85 16L86 16L86 0L11 0M6 4L9 6L6 4M4 16L10 16C9.07658 10.2392 5.17966 10.4911 4 16z"/>
<path style="fill:#32325f; stroke:none;" d="M24 71C15.1451 71.2908 16.0933 80.1331 23.0432 83.821C28.3294 86.626 37.1737 85 43 85C50.5781 85 66.5037 87.9944 72.7716 83.2577C77.219 79.8968 76 72.8693 76 68L76 29L86 29L83.5664 13.6034L70 12L39 12L26.3179 14.3179L24 30L24 71z"/>
<path style="fill:#000000; stroke:none;" d="M28 71C37.4169 71 49.8632 68.8251 58.9414 71.3179C63.643 72.609 62.7824 82.4507 68.7762 80.338C73.6798 78.6095 72 68.9495 72 65L72 16L41 16L29.6034 17.6034L28 32L28 71M76 25L82 25C81.965 15.092 76.035 15.092 76 25M4 20L4 65L10 65L10 20L4 20z"/>
<path style="fill:#32325f; stroke:none;" d="M40.1335 23.0278C29.4981 29.1269 44.1835 48.5864 53 43.6813C58.6412 40.5429 68.739 28.6435 59.7716 23.179C56.493 21.1811 52.9136 22.7877 49.4244 22.696C46.2674 22.613 43.1343 21.3069 40.1335 23.0278z"/>
<path style="fill:#000000; stroke:none;" d="M51 31C41.8578 24.3315 36.843 30.9592 46.0154 37.6628C51.0238 41.3231 59.6249 35.1952 58.4576 29.1489C57.3666 23.4983 52.2999 28.6821 51 31M76 29L76 66C76 72.9893 76.9639 79.2724 71 84L71 85L86 85L86 29L76 29z"/>
<path style="fill:#32325f; stroke:none;" d="M35 51L34 55L38 54L35 51M40 55L66 55C63.8483 48.5169 42.1517 48.5169 40 55M35 61L34 65L38 64L37 61L35 61M40 65L66 65C63.8483 58.5169 42.1517 58.5169 40 65z"/>
<path style="fill:#000000; stroke:none;" d="M0 69L0 85L6 85L0 69M5 69L7 76L10 69L5 69M21 75C26.7763 85.5252 49.4704 81 60 81L59 75L21 75z"/>
</svg>
