<!DOCTYPE svg PUBLIC "-//W3C//DTD SVG 20010904//EN" "http://www.w3.org/TR/2001/REC-SVG-20010904/DTD/svg10.dtd">
<svg version="1.0" xmlns="http://www.w3.org/2000/svg" width="86px" height="85px" viewBox="0 0 860 850" preserveAspectRatio="xMidYMid meet">
<g id="layer101" fill="#32325f" stroke="none">
 <path d="M275 782 l-130 -67 -3 -83 -3 -82 -69 -35 c-39 -19 -70 -41 -70 -48 0 -8 23 -24 50 -37 28 -13 50 -26 50 -30 0 -3 -22 -16 -50 -27 -30 -13 -50 -28 -50 -37 0 -10 51 -40 147 -86 147 -70 148 -71 181 -56 l32 16 0 -105 0 -105 70 0 70 0 0 105 0 106 31 -17 c31 -16 32 -15 178 55 80 39 147 78 149 85 2 9 -19 24 -55 41 l-58 26 55 27 c30 15 56 32 58 39 2 7 -29 29 -72 50 l-76 37 0 81 0 80 -135 68 c-74 37 -143 67 -153 67 -9 -1 -75 -31 -147 -68z m155 -132 c18 0 20 7 20 75 l0 75 110 -55 110 -55 0 -60 0 -60 -55 27 -55 27 -65 -32 -65 -32 -60 30 c-33 16 -65 30 -72 30 -7 0 -37 -11 -65 -25 l-53 -24 0 57 0 57 113 56 112 56 3 -73 c3 -66 5 -74 22 -74z m-159 -169 l-109 -55 -41 19 c-23 10 -41 21 -41 24 0 3 49 29 108 57 l107 51 43 -21 43 -21 -110 -54z m470 -34 l-45 -19 -108 53 -108 53 42 22 43 22 110 -56 110 -55 -44 -20z m-201 9 l104 -53 -61 -32 c-35 -17 -67 -31 -72 -31 -5 0 -22 18 -38 40 -15 22 -35 40 -44 40 -8 0 -30 -20 -48 -45 l-32 -44 -64 31 c-36 18 -65 35 -65 38 0 5 200 109 210 109 3 0 52 -24 110 -53z m-227 -180 c-4 -18 -1 -26 8 -26 9 0 7 -4 -5 -11 -14 -9 -41 -1 -134 42 l-115 53 49 22 49 22 76 -39 c70 -35 76 -40 72 -63z m364 7 c-82 -40 -118 -52 -137 -48 -22 6 -23 8 -7 17 12 6 16 16 12 28 -5 16 7 26 71 58 l77 39 48 -20 48 -20 -112 -54z m-219 44 c12 -17 18 -33 12 -35 -6 -2 -10 -53 -10 -128 l0 -124 -30 0 -30 0 0 118 c0 73 -4 122 -11 129 -8 8 -5 19 12 42 12 17 25 31 28 31 3 0 16 -15 29 -33z"/>
 <path d="M410 600 c0 -15 5 -20 18 -18 9 2 17 10 17 18 0 8 -8 16 -17 18 -13 2 -18 -3 -18 -18z"/>
 </g>

</svg>