<!DOCTYPE svg PUBLIC "-//W3C//DTD SVG 20010904//EN" "http://www.w3.org/TR/2001/REC-SVG-20010904/DTD/svg10.dtd">
<svg version="1.0" xmlns="http://www.w3.org/2000/svg" width="86px" height="85px" viewBox="0 0 860 850" preserveAspectRatio="xMidYMid meet">
<g id="layer101" fill="#32325f" stroke="none">
 <path d="M54 833 c-3 -10 -15 -40 -27 -67 -21 -47 -22 -62 -21 -355 1 -387 5 -411 70 -411 41 0 49 14 59 98 6 50 10 62 24 62 40 0 52 32 49 131 -2 76 -6 94 -18 94 -12 0 -16 -19 -20 -89 -3 -59 -9 -91 -18 -94 -9 -3 -12 54 -12 261 0 262 0 264 -25 311 -14 26 -25 54 -25 62 0 20 -30 18 -36 -3z m40 -120 c6 -20 4 -23 -18 -23 -29 0 -33 17 -15 52 12 23 19 16 33 -29z m6 -288 l0 -225 -30 0 -30 0 0 225 0 225 30 0 30 0 0 -225z m0 -284 c0 -30 -25 -45 -44 -26 -26 26 -20 45 14 45 23 0 30 -5 30 -19z"/>
 <path d="M210 821 c-53 -52 -53 -111 0 -111 l30 0 0 -273 c0 -273 0 -274 23 -295 23 -21 30 -22 295 -22 269 0 271 0 286 22 11 15 16 45 16 85 l0 63 -50 0 -50 0 0 255 0 256 -25 24 -24 25 -236 0 -237 0 -28 -29z m382 -41 l-4 -30 -189 0 c-185 0 -189 0 -179 20 19 35 42 39 211 40 l166 0 -5 -30z m118 11 c6 -12 10 -134 10 -325 l0 -306 -208 0 c-148 0 -211 3 -220 12 -9 9 -12 84 -12 275 l0 263 173 2 172 3 3 35 c2 19 8 41 14 47 16 20 56 15 68 -6z m108 -583 c-3 -38 -6 -43 -28 -43 -22 0 -25 5 -28 43 -3 41 -2 42 28 42 30 0 31 -1 28 -42z"/>
 <path d="M340 636 c0 -21 21 -31 30 -15 5 7 6 17 4 21 -9 14 -34 9 -34 -6z"/>
 <path d="M402 633 c3 -16 17 -18 128 -18 111 0 125 2 128 18 3 15 -8 17 -128 17 -120 0 -131 -2 -128 -17z"/>
 <path d="M340 536 c0 -8 4 -17 9 -20 11 -7 33 18 24 27 -12 12 -33 7 -33 -7z"/>
 <path d="M402 533 c3 -16 17 -18 128 -18 111 0 125 2 128 18 3 15 -8 17 -128 17 -120 0 -131 -2 -128 -17z"/>
 <path d="M428 401 c-57 -53 -63 -62 -63 -99 0 -54 26 -82 76 -82 21 0 41 5 44 10 4 7 12 7 25 0 60 -32 120 4 120 72 0 37 -6 47 -49 89 -81 78 -81 78 -153 10z m113 -31 c41 -33 54 -59 44 -90 -9 -28 -40 -25 -64 8 l-21 27 -23 -27 c-27 -33 -52 -36 -67 -9 -5 11 -10 22 -10 26 0 10 82 95 92 95 6 0 27 -14 49 -30z"/>
 </g>

</svg>