<!DOCTYPE svg PUBLIC "-//W3C//DTD SVG 20010904//EN" "http://www.w3.org/TR/2001/REC-SVG-20010904/DTD/svg10.dtd">
<svg version="1.0" xmlns="http://www.w3.org/2000/svg" width="85px" height="85px" viewBox="0 0 850 850" preserveAspectRatio="xMidYMid meet">
<g id="layer101" fill="#2d2d56" stroke="none">
 <path d="M91 753 c-50 -53 -91 -102 -91 -108 0 -14 92 -105 107 -105 5 0 30 -20 54 -44 51 -50 110 -71 173 -62 23 4 95 9 161 12 66 3 125 10 131 15 6 5 32 -14 69 -51 65 -66 106 -78 138 -42 35 39 22 74 -68 184 -109 132 -120 137 -288 138 -137 0 -167 8 -167 43 0 26 -87 117 -112 117 -9 0 -57 -44 -107 -97z m107 -100 l-78 -77 -35 34 -35 34 77 78 78 78 35 -35 35 -35 -77 -77z m260 -3 c102 0 142 -4 165 -16 36 -18 187 -195 187 -219 0 -9 -7 -18 -16 -22 -19 -7 -144 113 -144 139 0 10 -9 27 -20 38 -18 18 -31 20 -108 18 -73 -3 -87 -6 -90 -20 -3 -16 6 -18 75 -18 86 0 107 -8 101 -36 -3 -17 -17 -20 -123 -26 -66 -3 -134 -9 -152 -13 -43 -9 -101 11 -141 48 l-32 31 62 63 c57 58 63 61 82 47 15 -10 54 -14 154 -14z"/>
 <path d="M363 574 c-7 -19 11 -39 26 -30 16 10 13 33 -4 40 -9 3 -18 -1 -22 -10z"/>
 <path d="M412 349 c-25 -12 -55 -39 -70 -62 -23 -34 -27 -52 -27 -108 0 -60 3 -71 31 -106 40 -50 87 -73 149 -73 140 0 226 139 165 265 -45 92 -157 130 -248 84z m143 -39 c137 -66 91 -270 -60 -270 -151 0 -196 203 -61 270 51 25 69 25 121 0z"/>
 <path d="M470 281 c0 -10 -7 -21 -15 -25 -19 -7 -20 -46 -1 -46 8 0 18 5 21 10 9 15 25 12 25 -5 0 -8 -8 -15 -18 -15 -10 0 -23 -5 -30 -12 -15 -15 -16 -64 -1 -73 5 -4 14 -18 19 -31 11 -29 30 -31 37 -5 3 11 11 22 19 25 8 3 14 15 14 26 0 19 -4 21 -30 15 -37 -8 -41 10 -5 19 41 10 54 79 19 93 -8 3 -14 14 -14 24 0 12 -7 19 -20 19 -13 0 -20 -7 -20 -19z"/>
 </g>

</svg>