<svg width="24" height="24" xmlns="http://www.w3.org/2000/svg">

 <g>
  <title>background</title>
  <rect fill="none" id="canvas_background" height="402" width="582" y="-1" x="-1"/>
 </g>
 <g>
  <title>Layer 1</title>
  <path fill="#95989a" stroke="null" id="svg_1" d="m19.915,13.028c-0.388,-0.49 -0.277,-0.708 0,-1.146c0.005,-0.005 3.208,-4.431 3.538,-5.932l0.002,-0.001c0.164,-0.547 0,-0.949 -0.793,-0.949l-2.624,0c-0.668,0 -0.976,0.345 -1.141,0.731c0,0 -1.336,3.198 -3.226,5.271c-0.61,0.599 -0.892,0.791 -1.225,0.791c-0.164,0 -0.419,-0.192 -0.419,-0.739l0,-5.105c0,-0.656 -0.187,-0.949 -0.74,-0.949l-4.126,0c-0.419,0 -0.668,0.306 -0.668,0.591c0,0.622 0.945,0.765 1.043,2.515l0,3.797c0,0.832 -0.151,0.985 -0.486,0.985c-0.892,0 -3.057,-3.211 -4.34,-6.886c-0.259,-0.713 -0.512,-1.001 -1.185,-1.001l-2.625,0c-0.749,0 -0.9,0.345 -0.9,0.731c0,0.682 0.892,4.073 4.148,8.553c2.17,3.058 5.226,4.715 8.006,4.715c1.671,0 1.875,-0.368 1.875,-1.001c0,-2.922 -0.151,-3.198 0.686,-3.198c0.388,0 1.056,0.192 2.616,1.667c1.783,1.749 2.076,2.532 3.074,2.532l2.624,0c0.748,0 1.127,-0.368 0.909,-1.094c-0.499,-1.527 -3.871,-4.668 -4.023,-4.878z"/>
 </g>
</svg>